{
    "asset" : {
        "generator" : "Khronos glTF Blender I/O v1.1.46",
        "version" : "2.0"
    },
    "scene" : 0,
    "scenes" : [
        {
            "name" : "Scene",
            "nodes" : [
                0,
                1,
                2,
                3,
                4
            ]
        }
    ],
    "nodes" : [
        {
            "name" : "Camera.001",
            "rotation" : [
                0.8937963247299194,
                0.09062855690717697,
                -0.3857799172401428,
                0.20997287333011627
            ],
            "translation" : [
                7.358891487121582,
                4.958308696746826,
                6.925792217254639
            ]
        },
        {
            "name" : "Camera.002",
            "rotation" : [
                0.8937963247299194,
                0.09062855690717697,
                -0.3857799172401428,
                0.20997287333011627
            ],
            "translation" : [
                7.358891487121582,
                4.958308696746826,
                6.925792217254639
            ]
        },
        {
            "name" : "Light.001",
            "rotation" : [
                0.5232754945755005,
                0.34203392267227173,
                -0.7269423604011536,
                0.284166157245636
            ],
            "translation" : [
                8.045884132385254,
                8.496867179870605,
                0.21500883996486664
            ]
        },
        {
            "name" : "Camera.003",
            "rotation" : [
                0.8937963247299194,
                0.09062855690717697,
                -0.3857799172401428,
                0.20997287333011627
            ],
            "translation" : [
                7.358891487121582,
                4.958308696746826,
                6.925792217254639
            ]
        },
        {
            "mesh" : 0,
            "name" : "Cube.006",
            "rotation" : [
                0.7071068286895752,
                0.7071067094802856,
                0,
                -1.7394359019817784e-07
            ],
            "scale" : [
                0.4721582531929016,
                0.47215819358825684,
                0.2552824914455414
            ],
            "translation" : [
                0.043518245220184326,
                1.8899118900299072,
                1.012701392173767
            ]
        }
    ],
    "meshes" : [
        {
            "name" : "Cube.008",
            "primitives" : [
                {
                    "attributes" : {
                        "POSITION" : 0,
                        "NORMAL" : 1,
                        "TEXCOORD_0" : 2
                    },
                    "indices" : 3
                }
            ]
        }
    ],
    "accessors" : [
        {
            "bufferView" : 0,
            "componentType" : 5126,
            "count" : 2612,
            "max" : [
                1.0430785417556763,
                1.0217962265014648,
                10.498466491699219
            ],
            "min" : [
                -4.6235504150390625,
                -3.7929906845092773,
                -4.493968963623047
            ],
            "type" : "VEC3"
        },
        {
            "bufferView" : 1,
            "componentType" : 5126,
            "count" : 2612,
            "type" : "VEC3"
        },
        {
            "bufferView" : 2,
            "componentType" : 5126,
            "count" : 2612,
            "type" : "VEC2"
        },
        {
            "bufferView" : 3,
            "componentType" : 5123,
            "count" : 2676,
            "type" : "SCALAR"
        }
    ],
    "bufferViews" : [
        {
            "buffer" : 0,
            "byteLength" : 31344,
            "byteOffset" : 0
        },
        {
            "buffer" : 0,
            "byteLength" : 31344,
            "byteOffset" : 31344
        },
        {
            "buffer" : 0,
            "byteLength" : 20896,
            "byteOffset" : 62688
        },
        {
            "buffer" : 0,
            "byteLength" : 5352,
            "byteOffset" : 83584
        }
    ],
    "buffers" : [
        {
            "byteLength" : 88936,
            "uri" : "data:application/octet-stream;base64,"
        }
    ]
}
