{
    "asset" : {
        "generator" : "Khronos glTF Blender I/O v1.1.46",
        "version" : "2.0"
    },
    "scene" : 0,
    "scenes" : [
        {
            "name" : "Scene",
            "nodes" : [
                0,
                1,
                2
            ]
        }
    ],
    "nodes" : [
        {
            "name" : "Light.001",
            "rotation" : [
                -0.5709477066993713,
                0.2721712291240692,
                0.7558802962303162,
                0.16907566785812378
            ],
            "translation" : [
                0,
                150,
                0.05500999838113785
            ]
        },
        {
            "name" : "Camera.001",
            "rotation" : [
                -0.7804825901985168,
                0.20870345830917358,
                0.33687177300453186,
                0.4835361838340759
            ],
            "translation" : [
                7.358891487121582,
                4.958308219909668,
                6.925793647766113
            ]
        },
        {
            "mesh" : 0,
            "name" : "BezierCircle.005",
            "rotation" : [
                -0.41257235407829285,
                0.41257208585739136,
                0.5742685198783875,
                0.5742682814598083
            ],
            "scale" : [
                3.452348470687866,
                4.134823322296143,
                2.4898359775543213
            ],
            "translation" : [
                0,
                -1.1784820556640625,
                -0.6846602559089661
            ]
        }
    ],
    "meshes" : [
        {
            "name" : "BezierCircle.005",
            "primitives" : [
                {
                    "attributes" : {
                        "POSITION" : 0,
                        "NORMAL" : 1
                    },
                    "indices" : 2
                }
            ]
        }
    ],
    "accessors" : [
        {
            "bufferView" : 0,
            "componentType" : 5126,
            "count" : 9456,
            "max" : [
                1.1147745847702026,
                0.14157156646251678,
                1.5461766719818115
            ],
            "min" : [
                -1.4819583892822266,
                -0.1846379041671753,
                -0.24764999747276306
            ],
            "type" : "VEC3"
        },
        {
            "bufferView" : 1,
            "componentType" : 5126,
            "count" : 9456,
            "type" : "VEC3"
        },
        {
            "bufferView" : 2,
            "componentType" : 5123,
            "count" : 56448,
            "type" : "SCALAR"
        }
    ],
    "bufferViews" : [
        {
            "buffer" : 0,
            "byteLength" : 113472,
            "byteOffset" : 0
        },
        {
            "buffer" : 0,
            "byteLength" : 113472,
            "byteOffset" : 113472
        },
        {
            "buffer" : 0,
            "byteLength" : 112896,
            "byteOffset" : 226944
        }
    ],
    "buffers" : [
        {
            "byteLength" : 339840,
            "uri" : "data:application/octet-stream;base64,"
        }
    ]
}
