{
    "asset" : {
        "generator" : "Khronos glTF Blender I/O v1.1.46",
        "version" : "2.0"
    },
    "scene" : 0,
    "scenes" : [
        {
            "name" : "Scene",
            "nodes" : [
                0,
                1,
                2
            ]
        }
    ],
    "nodes" : [
        {
            "name" : "Light.001",
            "rotation" : [
                0.5232754945755005,
                0.34203392267227173,
                -0.7269423604011536,
                0.284166157245636
            ],
            "translation" : [
                8.045884132385254,
                8.496867179870605,
                0.21500883996486664
            ]
        },
        {
            "name" : "Camera.001",
            "rotation" : [
                0.8937963247299194,
                0.09062855690717697,
                -0.3857799172401428,
                0.20997287333011627
            ],
            "translation" : [
                7.358891487121582,
                4.958308696746826,
                6.925792217254639
            ]
        },
        {
            "mesh" : 0,
            "name" : "Cube.016",
            "rotation" : [
                0,
                0.7071068286895752,
                -0.7071067094802856,
                -1.1520232590100932e-07
            ],
            "scale" : [
                2.016023874282837,
                2.016024112701416,
                1.090006709098816
            ],
            "translation" : [
                0.07999999821186066,
                6.230000972747803,
                0.10000084340572357
            ]
        }
    ],
    "meshes" : [
        {
            "name" : "Cube.004",
            "primitives" : [
                {
                    "attributes" : {
                        "POSITION" : 0,
                        "NORMAL" : 1,
                        "TEXCOORD_0" : 2
                    },
                    "indices" : 3
                }
            ]
        }
    ],
    "accessors" : [
        {
            "bufferView" : 0,
            "componentType" : 5126,
            "count" : 2428,
            "max" : [
                1.5448635816574097,
                2.2016916275024414,
                5.736028671264648
            ],
            "min" : [
                -1.2757359743118286,
                -2.0034687519073486,
                -0.05479881167411804
            ],
            "type" : "VEC3"
        },
        {
            "bufferView" : 1,
            "componentType" : 5126,
            "count" : 2428,
            "type" : "VEC3"
        },
        {
            "bufferView" : 2,
            "componentType" : 5126,
            "count" : 2428,
            "type" : "VEC2"
        },
        {
            "bufferView" : 3,
            "componentType" : 5123,
            "count" : 2544,
            "type" : "SCALAR"
        }
    ],
    "bufferViews" : [
        {
            "buffer" : 0,
            "byteLength" : 29136,
            "byteOffset" : 0
        },
        {
            "buffer" : 0,
            "byteLength" : 29136,
            "byteOffset" : 29136
        },
        {
            "buffer" : 0,
            "byteLength" : 19424,
            "byteOffset" : 58272
        },
        {
            "buffer" : 0,
            "byteLength" : 5088,
            "byteOffset" : 77696
        }
    ],
    "buffers" : [
        {
            "byteLength" : 82784,
            "uri" : "data:application/octet-stream;base64,"
        }
    ]
}
