{
    "asset" : {
        "generator" : "Khronos glTF Blender I/O v1.1.46",
        "version" : "2.0"
    },
    "scene" : 0,
    "scenes" : [
        {
            "name" : "Scene",
            "nodes" : [
                0,
                1,
                2
            ]
        }
    ],
    "nodes" : [
        {
            "name" : "Light.001",
            "rotation" : [
                -0.5709477066993713,
                0.2721712291240692,
                0.7558802962303162,
                0.16907566785812378
            ],
            "translation" : [
                8.045884132385254,
                8.496868133544922,
                0.21501001715660095
            ]
        },
        {
            "name" : "Camera.001",
            "rotation" : [
                -0.7804825901985168,
                0.20870345830917358,
                0.33687177300453186,
                0.4835361838340759
            ],
            "translation" : [
                7.358891487121582,
                4.958308219909668,
                6.925793647766113
            ]
        },
        {
            "mesh" : 0,
            "name" : "Circle.011",
            "rotation" : [
                -0.3280998766422272,
                0.7414559125900269,
                -0.5842804312705994,
                0.034784846007823944
            ],
            "scale" : [
                0.2687859535217285,
                0.606896162033081,
                0.2687859535217285
            ],
            "translation" : [
                0.009999999776482582,
                1.8809919357299805,
                0.08999998867511749
            ]
        }
    ],
    "meshes" : [
        {
            "name" : "Circle.002",
            "primitives" : [
                {
                    "attributes" : {
                        "POSITION" : 0,
                        "NORMAL" : 1,
                        "TEXCOORD_0" : 2
                    },
                    "indices" : 3
                }
            ]
        }
    ],
    "accessors" : [
        {
            "bufferView" : 0,
            "componentType" : 5126,
            "count" : 4125,
            "max" : [
                3.9625039100646973,
                1.018099308013916,
                6.215242862701416
            ],
            "min" : [
                -6.022372245788574,
                -0.3318265676498413,
                -8.754488945007324
            ],
            "type" : "VEC3"
        },
        {
            "bufferView" : 1,
            "componentType" : 5126,
            "count" : 4125,
            "type" : "VEC3"
        },
        {
            "bufferView" : 2,
            "componentType" : 5126,
            "count" : 4125,
            "type" : "VEC2"
        },
        {
            "bufferView" : 3,
            "componentType" : 5123,
            "count" : 11664,
            "type" : "SCALAR"
        }
    ],
    "bufferViews" : [
        {
            "buffer" : 0,
            "byteLength" : 49500,
            "byteOffset" : 0
        },
        {
            "buffer" : 0,
            "byteLength" : 49500,
            "byteOffset" : 49500
        },
        {
            "buffer" : 0,
            "byteLength" : 33000,
            "byteOffset" : 99000
        },
        {
            "buffer" : 0,
            "byteLength" : 23328,
            "byteOffset" : 132000
        }
    ],
    "buffers" : [
        {
            "byteLength" : 155328,
            "uri" : "data:application/octet-stream;base64,"
        }
    ]
}
