{
    "asset" : {
        "generator" : "Khronos glTF Blender I/O v1.1.46",
        "version" : "2.0"
    },
    "scene" : 0,
    "scenes" : [
        {
            "name" : "Scene",
            "nodes" : [
                0,
                1,
                2,
                3,
                4
            ]
        }
    ],
    "nodes" : [
        {
            "name" : "Light",
            "rotation" : [
                0.16907575726509094,
                0.7558803558349609,
                -0.27217137813568115,
                0.570947527885437
            ],
            "translation" : [
                4.076245307922363,
                5.903861999511719,
                -1.0054539442062378
            ]
        },
        {
            "name" : "Camera",
            "rotation" : [
                0.483536034822464,
                0.33687159419059753,
                -0.20870360732078552,
                0.7804827094078064
            ],
            "translation" : [
                7.358891487121582,
                4.958309173583984,
                6.925790786743164
            ]
        },
        {
            "name" : "Light.001",
            "rotation" : [
                -0.5709477066993713,
                0.2721712291240692,
                0.7558802962303162,
                0.16907566785812378
            ],
            "translation" : [
                8.045884132385254,
                8.496868133544922,
                0.21501001715660095
            ]
        },
        {
            "name" : "Camera.001",
            "rotation" : [
                -0.7804825901985168,
                0.20870345830917358,
                0.33687177300453186,
                0.4835361838340759
            ],
            "translation" : [
                7.358891487121582,
                4.958308219909668,
                6.925793647766113
            ]
        },
        {
            "mesh" : 0,
            "name" : "Circle.005",
            "rotation" : [
                -0.3280995786190033,
                0.7414565086364746,
                -0.5842797756195068,
                0.03478497639298439
            ],
            "scale" : [
                0.5322200059890747,
                1.201704978942871,
                0.5322200059890747
            ],
            "translation" : [
                0.029999999329447746,
                3.7799997329711914,
                0.15999998152256012
            ]
        }
    ],
    "meshes" : [
        {
            "name" : "Circle.006",
            "primitives" : [
                {
                    "attributes" : {
                        "POSITION" : 0,
                        "NORMAL" : 1,
                        "TEXCOORD_0" : 2
                    },
                    "indices" : 3
                }
            ]
        }
    ],
    "accessors" : [
        {
            "bufferView" : 0,
            "componentType" : 5126,
            "count" : 4080,
            "max" : [
                3.9624998569488525,
                1.018100380897522,
                6.215234756469727
            ],
            "min" : [
                -5.994680404663086,
                -0.33183491230010986,
                -8.754494667053223
            ],
            "type" : "VEC3"
        },
        {
            "bufferView" : 1,
            "componentType" : 5126,
            "count" : 4080,
            "type" : "VEC3"
        },
        {
            "bufferView" : 2,
            "componentType" : 5126,
            "count" : 4080,
            "type" : "VEC2"
        },
        {
            "bufferView" : 3,
            "componentType" : 5123,
            "count" : 11664,
            "type" : "SCALAR"
        }
    ],
    "bufferViews" : [
        {
            "buffer" : 0,
            "byteLength" : 48960,
            "byteOffset" : 0
        },
        {
            "buffer" : 0,
            "byteLength" : 48960,
            "byteOffset" : 48960
        },
        {
            "buffer" : 0,
            "byteLength" : 32640,
            "byteOffset" : 97920
        },
        {
            "buffer" : 0,
            "byteLength" : 23328,
            "byteOffset" : 130560
        }
    ],
    "buffers" : [
        {
            "byteLength" : 153888,
            "uri" : "data:application/octet-stream;base64,"
        }
    ]
}
