{
    "asset" : {
        "generator" : "Khronos glTF Blender I/O v1.1.46",
        "version" : "2.0"
    },
    "scene" : 0,
    "scenes" : [
        {
            "name" : "Scene",
            "nodes" : [
                0,
                1,
                2,
                3,
                4,
                5
            ]
        }
    ],
    "nodes" : [
        {
            "name" : "Light.001",
            "rotation" : [
                0.5232754945755005,
                0.34203392267227173,
                -0.7269423604011536,
                0.284166157245636
            ],
            "translation" : [
                8.045884132385254,
                8.496867179870605,
                0.21500883996486664
            ]
        },
        {
            "name" : "Camera.001",
            "rotation" : [
                0.8937963247299194,
                0.09062855690717697,
                -0.3857799172401428,
                0.20997287333011627
            ],
            "translation" : [
                7.358891487121582,
                4.958308696746826,
                6.925792217254639
            ]
        },
        {
            "mesh" : 0,
            "name" : "BezierCircle.005",
            "rotation" : [
                -0.6978017091751099,
                -0.11433640867471695,
                0.6978017091751099,
                0.11433640867471695
            ],
            "scale" : [
                0.8085489869117737,
                0.5831258893013,
                0.9683866500854492
            ],
            "translation" : [
                2.646514892578125,
                9.689579963684082,
                -12.399131774902344
            ]
        },
        {
            "mesh" : 1,
            "name" : "Cube.004",
            "rotation" : [
                0.7071068286895752,
                0,
                0,
                0.7071067094802856
            ],
            "scale" : [
                0.012286487966775894,
                0.04002293199300766,
                0.012286489829421043
            ],
            "translation" : [
                2.3378188610076904,
                10.57232666015625,
                -17.625944137573242
            ]
        },
        {
            "name" : "Cube.007",
            "rotation" : [
                0,
                0.7071068286895752,
                -0.7071067094802856,
                0
            ],
            "scale" : [
                -11.73094367980957,
                -11.730944633483887,
                -62.46661376953125
            ],
            "translation" : [
                4.557461738586426,
                62.48225784301758,
                -6.3962249755859375
            ]
        },
        {
            "mesh" : 2,
            "name" : "Cube.010",
            "rotation" : [
                0,
                0.7071068286895752,
                -0.7071067094802856,
                0
            ],
            "scale" : [
                -3.049720525741577,
                -3.0497207641601562,
                -7.8931050300598145
            ],
            "translation" : [
                0,
                227.20858764648438,
                3.0527480703312904e-05
            ]
        }
    ],
    "meshes" : [
        {
            "name" : "BezierCircle.001",
            "primitives" : [
                {
                    "attributes" : {
                        "POSITION" : 0,
                        "NORMAL" : 1
                    },
                    "indices" : 2
                }
            ]
        },
        {
            "name" : "Cube.006",
            "primitives" : [
                {
                    "attributes" : {
                        "POSITION" : 3,
                        "NORMAL" : 4,
                        "TEXCOORD_0" : 5
                    },
                    "indices" : 6
                }
            ]
        },
        {
            "name" : "Cube.010",
            "primitives" : [
                {
                    "attributes" : {
                        "POSITION" : 7,
                        "NORMAL" : 8,
                        "TEXCOORD_0" : 9
                    },
                    "indices" : 10
                }
            ]
        }
    ],
    "accessors" : [
        {
            "bufferView" : 0,
            "componentType" : 5126,
            "count" : 600,
            "max" : [
                1.1287423372268677,
                0.2502269148826599,
                0.14860835671424866
            ],
            "min" : [
                -1.4976320266723633,
                -1.5595698356628418,
                -0.1914169043302536
            ],
            "type" : "VEC3"
        },
        {
            "bufferView" : 1,
            "componentType" : 5126,
            "count" : 600,
            "type" : "VEC3"
        },
        {
            "bufferView" : 2,
            "componentType" : 5123,
            "count" : 3528,
            "type" : "SCALAR"
        },
        {
            "bufferView" : 3,
            "componentType" : 5126,
            "count" : 24,
            "max" : [
                9,
                9,
                9
            ],
            "min" : [
                -9,
                -9,
                -9
            ],
            "type" : "VEC3"
        },
        {
            "bufferView" : 4,
            "componentType" : 5126,
            "count" : 24,
            "type" : "VEC3"
        },
        {
            "bufferView" : 5,
            "componentType" : 5126,
            "count" : 24,
            "type" : "VEC2"
        },
        {
            "bufferView" : 6,
            "componentType" : 5123,
            "count" : 36,
            "type" : "SCALAR"
        },
        {
            "bufferView" : 7,
            "componentType" : 5126,
            "count" : 45576,
            "max" : [
                5.839936256408691,
                5.852027416229248,
                1
            ],
            "min" : [
                -5.839936256408691,
                -5.839936256408691,
                -28.6943359375
            ],
            "type" : "VEC3"
        },
        {
            "bufferView" : 8,
            "componentType" : 5126,
            "count" : 45576,
            "type" : "VEC3"
        },
        {
            "bufferView" : 9,
            "componentType" : 5126,
            "count" : 45576,
            "type" : "VEC2"
        },
        {
            "bufferView" : 10,
            "componentType" : 5123,
            "count" : 60240,
            "type" : "SCALAR"
        }
    ],
    "bufferViews" : [
        {
            "buffer" : 0,
            "byteLength" : 7200,
            "byteOffset" : 0
        },
        {
            "buffer" : 0,
            "byteLength" : 7200,
            "byteOffset" : 7200
        },
        {
            "buffer" : 0,
            "byteLength" : 7056,
            "byteOffset" : 14400
        },
        {
            "buffer" : 0,
            "byteLength" : 288,
            "byteOffset" : 21456
        },
        {
            "buffer" : 0,
            "byteLength" : 288,
            "byteOffset" : 21744
        },
        {
            "buffer" : 0,
            "byteLength" : 192,
            "byteOffset" : 22032
        },
        {
            "buffer" : 0,
            "byteLength" : 72,
            "byteOffset" : 22224
        },
        {
            "buffer" : 0,
            "byteLength" : 546912,
            "byteOffset" : 22296
        },
        {
            "buffer" : 0,
            "byteLength" : 546912,
            "byteOffset" : 569208
        },
        {
            "buffer" : 0,
            "byteLength" : 364608,
            "byteOffset" : 1116120
        },
        {
            "buffer" : 0,
            "byteLength" : 120480,
            "byteOffset" : 1480728
        }
    ],
    "buffers" : [
        {
            "byteLength" : 1601208,
            "uri" : "data:application/octet-stream;base64,"
        }
    ]
}
