{
    "asset" : {
        "generator" : "Khronos glTF Blender I/O v1.1.46",
        "version" : "2.0"
    },
    "scene" : 0,
    "scenes" : [
        {
            "name" : "Scene",
            "nodes" : [
                0
            ]
        }
    ],
    "nodes" : [
        {
            "mesh" : 0,
            "name" : "Circle.005",
            "rotation" : [
                0.03478563576936722,
                -0.5842801332473755,
                -0.7414566278457642,
                0.328098863363266
            ],
            "scale" : [
                0.5322202444076538,
                1.2017052173614502,
                0.5322203040122986
            ],
            "translation" : [
                0.029999999329447746,
                -0.809999942779541,
                0.16000041365623474
            ]
        }
    ],
    "meshes" : [
        {
            "name" : "Circle.001",
            "primitives" : [
                {
                    "attributes" : {
                        "POSITION" : 0,
                        "NORMAL" : 1,
                        "TEXCOORD_0" : 2
                    },
                    "indices" : 3
                }
            ]
        }
    ],
    "accessors" : [
        {
            "bufferView" : 0,
            "componentType" : 5126,
            "count" : 4082,
            "max" : [
                3.9624998569488525,
                0.33183491230010986,
                8.754494667053223
            ],
            "min" : [
                -5.994680404663086,
                -1.018100380897522,
                -6.215234756469727
            ],
            "type" : "VEC3"
        },
        {
            "bufferView" : 1,
            "componentType" : 5126,
            "count" : 4082,
            "type" : "VEC3"
        },
        {
            "bufferView" : 2,
            "componentType" : 5126,
            "count" : 4082,
            "type" : "VEC2"
        },
        {
            "bufferView" : 3,
            "componentType" : 5123,
            "count" : 11664,
            "type" : "SCALAR"
        }
    ],
    "bufferViews" : [
        {
            "buffer" : 0,
            "byteLength" : 48984,
            "byteOffset" : 0
        },
        {
            "buffer" : 0,
            "byteLength" : 48984,
            "byteOffset" : 48984
        },
        {
            "buffer" : 0,
            "byteLength" : 32656,
            "byteOffset" : 97968
        },
        {
            "buffer" : 0,
            "byteLength" : 23328,
            "byteOffset" : 130624
        }
    ],
    "buffers" : [
        {
            "byteLength" : 153952,
            "uri" : "data:application/octet-stream;base64,"
        }
    ]
}
