{
    "asset" : {
        "generator" : "Khronos glTF Blender I/O v1.1.46",
        "version" : "2.0"
    },
    "scene" : 0,
    "scenes" : [
        {
            "name" : "Scene",
            "nodes" : [
                0
            ]
        }
    ],
    "nodes" : [
        {
            "mesh" : 0,
            "name" : "BezierCircle.001",
            "rotation" : [
                0.5742682218551636,
                0.574268639087677,
                -0.41257208585739136,
                0.41257229447364807
            ],
            "scale" : [
                3.452350616455078,
                4.134824752807617,
                2.489837169647217
            ],
            "translation" : [
                0,
                -1.8500001430511475,
                -1.0246608257293701
            ]
        }
    ],
    "meshes" : [
        {
            "name" : "BezierCircle.003",
            "primitives" : [
                {
                    "attributes" : {
                        "POSITION" : 0,
                        "NORMAL" : 1
                    },
                    "indices" : 2
                }
            ]
        }
    ],
    "accessors" : [
        {
            "bufferView" : 0,
            "componentType" : 5126,
            "count" : 9456,
            "max" : [
                1.1147745847702026,
                0.1846379041671753,
                0.24764999747276306
            ],
            "min" : [
                -1.4819583892822266,
                -0.14157156646251678,
                -1.5461766719818115
            ],
            "type" : "VEC3"
        },
        {
            "bufferView" : 1,
            "componentType" : 5126,
            "count" : 9456,
            "type" : "VEC3"
        },
        {
            "bufferView" : 2,
            "componentType" : 5123,
            "count" : 56448,
            "type" : "SCALAR"
        }
    ],
    "bufferViews" : [
        {
            "buffer" : 0,
            "byteLength" : 113472,
            "byteOffset" : 0
        },
        {
            "buffer" : 0,
            "byteLength" : 113472,
            "byteOffset" : 113472
        },
        {
            "buffer" : 0,
            "byteLength" : 112896,
            "byteOffset" : 226944
        }
    ],
    "buffers" : [
        {
            "byteLength" : 339840,
            "uri" : "data:application/octet-stream;base64,"
        }
    ]
}
