{
    "asset" : {
        "generator" : "Khronos glTF Blender I/O v1.1.46",
        "version" : "2.0"
    },
    "scene" : 0,
    "scenes" : [
        {
            "name" : "Scene",
            "nodes" : [
                0
            ]
        }
    ],
    "nodes" : [
        {
            "mesh" : 0,
            "name" : "Cube.016",
            "rotation" : [
                0,
                -0.7071067094802856,
                -0.7071068286895752,
                -5.76011558450773e-08
            ],
            "scale" : [
                2.0160233974456787,
                2.016024351119995,
                1.0900068283081055
            ],
            "translation" : [
                0.07999999821186066,
                3.1100003719329834,
                0.10000212490558624
            ]
        }
    ],
    "meshes" : [
        {
            "name" : "Cube.005",
            "primitives" : [
                {
                    "attributes" : {
                        "POSITION" : 0,
                        "NORMAL" : 1,
                        "TEXCOORD_0" : 2
                    },
                    "indices" : 3
                }
            ]
        }
    ],
    "accessors" : [
        {
            "bufferView" : 0,
            "componentType" : 5126,
            "count" : 2491,
            "max" : [
                1.5448635816574097,
                2.0034687519073486,
                0.05479881167411804
            ],
            "min" : [
                -1.2757359743118286,
                -2.2016916275024414,
                -5.736028671264648
            ],
            "type" : "VEC3"
        },
        {
            "bufferView" : 1,
            "componentType" : 5126,
            "count" : 2491,
            "type" : "VEC3"
        },
        {
            "bufferView" : 2,
            "componentType" : 5126,
            "count" : 2491,
            "type" : "VEC2"
        },
        {
            "bufferView" : 3,
            "componentType" : 5123,
            "count" : 2544,
            "type" : "SCALAR"
        }
    ],
    "bufferViews" : [
        {
            "buffer" : 0,
            "byteLength" : 29892,
            "byteOffset" : 0
        },
        {
            "buffer" : 0,
            "byteLength" : 29892,
            "byteOffset" : 29892
        },
        {
            "buffer" : 0,
            "byteLength" : 19928,
            "byteOffset" : 59784
        },
        {
            "buffer" : 0,
            "byteLength" : 5088,
            "byteOffset" : 79712
        }
    ],
    "buffers" : [
        {
            "byteLength" : 84800,
            "uri" : "data:application/octet-stream;base64,"
        }
    ]
}
