{
    "asset" : {
        "generator" : "Khronos glTF Blender I/O v1.1.46",
        "version" : "2.0"
    },
    "scene" : 0,
    "scenes" : [
        {
            "name" : "Scene",
            "nodes" : [
                0,
                1
            ]
        }
    ],
    "nodes" : [
        {
            "name" : "Light.001",
            "rotation" : [
                -0.5709477066993713,
                0.2721712291240692,
                0.7558802962303162,
                0.16907566785812378
            ],
            "translation" : [
                8.045884132385254,
                8.496868133544922,
                0.21501001715660095
            ]
        },
        {
            "mesh" : 0,
            "name" : "Cube.006",
            "rotation" : [
                -0.4999999403953552,
                -0.4999999403953552,
                0.49999988079071045,
                0.5000002384185791
            ],
            "scale" : [
                0.4721582531929016,
                0.255282461643219,
                0.47215813398361206
            ],
            "translation" : [
                0.6235179901123047,
                0.7899119853973389,
                0.7727017402648926
            ]
        }
    ],
    "meshes" : [
        {
            "name" : "Cube.008",
            "primitives" : [
                {
                    "attributes" : {
                        "POSITION" : 0,
                        "NORMAL" : 1,
                        "TEXCOORD_0" : 2
                    },
                    "indices" : 3
                }
            ]
        }
    ],
    "accessors" : [
        {
            "bufferView" : 0,
            "componentType" : 5126,
            "count" : 2642,
            "max" : [
                1.0430785417556763,
                10.498466491699219,
                3.7929906845092773
            ],
            "min" : [
                -4.6235504150390625,
                -4.493968963623047,
                -1.0217962265014648
            ],
            "type" : "VEC3"
        },
        {
            "bufferView" : 1,
            "componentType" : 5126,
            "count" : 2642,
            "type" : "VEC3"
        },
        {
            "bufferView" : 2,
            "componentType" : 5126,
            "count" : 2642,
            "type" : "VEC2"
        },
        {
            "bufferView" : 3,
            "componentType" : 5123,
            "count" : 2676,
            "type" : "SCALAR"
        }
    ],
    "bufferViews" : [
        {
            "buffer" : 0,
            "byteLength" : 31704,
            "byteOffset" : 0
        },
        {
            "buffer" : 0,
            "byteLength" : 31704,
            "byteOffset" : 31704
        },
        {
            "buffer" : 0,
            "byteLength" : 21136,
            "byteOffset" : 63408
        },
        {
            "buffer" : 0,
            "byteLength" : 5352,
            "byteOffset" : 84544
        }
    ],
    "buffers" : [
        {
            "byteLength" : 89896,
            "uri" : "data:application/octet-stream;base64,"
        }
    ]
}
