{
    "asset" : {
        "generator" : "Khronos glTF Blender I/O v1.1.46",
        "version" : "2.0"
    },
    "scene" : 0,
    "scenes" : [
        {
            "name" : "Scene",
            "nodes" : [
                0
            ]
        }
    ],
    "nodes" : [
        {
            "mesh" : 0,
            "name" : "Cube.010",
            "rotation" : [
                0,
                -0.7071067094802856,
                -0.7071068286895752,
                0
            ],
            "scale" : [
                -3.049720048904419,
                -3.0497214794158936,
                -7.893105983734131
            ],
            "translation" : [
                0,
                127.00001525878906,
                7.8118551755324e-05
            ]
        }
    ],
    "meshes" : [
        {
            "name" : "Cube.007",
            "primitives" : [
                {
                    "attributes" : {
                        "POSITION" : 0,
                        "NORMAL" : 1,
                        "TEXCOORD_0" : 2
                    },
                    "indices" : 3
                }
            ]
        }
    ],
    "accessors" : [
        {
            "bufferView" : 0,
            "componentType" : 5126,
            "count" : 49308,
            "max" : [
                5.839936256408691,
                5.839936256408691,
                28.6943359375
            ],
            "min" : [
                -5.839936256408691,
                -5.852027416229248,
                -1
            ],
            "type" : "VEC3"
        },
        {
            "bufferView" : 1,
            "componentType" : 5126,
            "count" : 49308,
            "type" : "VEC3"
        },
        {
            "bufferView" : 2,
            "componentType" : 5126,
            "count" : 49308,
            "type" : "VEC2"
        },
        {
            "bufferView" : 3,
            "componentType" : 5123,
            "count" : 60240,
            "type" : "SCALAR"
        }
    ],
    "bufferViews" : [
        {
            "buffer" : 0,
            "byteLength" : 591696,
            "byteOffset" : 0
        },
        {
            "buffer" : 0,
            "byteLength" : 591696,
            "byteOffset" : 591696
        },
        {
            "buffer" : 0,
            "byteLength" : 394464,
            "byteOffset" : 1183392
        },
        {
            "buffer" : 0,
            "byteLength" : 120480,
            "byteOffset" : 1577856
        }
    ],
    "buffers" : [
        {
            "byteLength" : 1698336,
            "uri" : "data:application/octet-stream;base64,"
        }
    ]
}
