{
    "asset" : {
        "generator" : "Khronos glTF Blender I/O v1.1.46",
        "version" : "2.0"
    },
    "scene" : 0,
    "scenes" : [
        {
            "name" : "Scene",
            "nodes" : [
                0
            ]
        }
    ],
    "nodes" : [
        {
            "mesh" : 0,
            "name" : "Plane.001",
            "rotation" : [
                -0.7071065902709961,
                0,
                0,
                0.7071069478988647
            ],
            "scale" : [
                0.4116307497024536,
                0.10722438246011734,
                0.3931061327457428
            ],
            "translation" : [
                3.0399999618530273,
                3.7700002193450928,
                2.4800021648406982
            ]
        }
    ],
    "materials" : [
        {
            "doubleSided" : true,
            "emissiveFactor" : [
                0,
                0,
                0
            ],
            "name" : "Material.006",
            "pbrMetallicRoughness" : {
                "baseColorFactor" : [
                    0.800000011920929,
                    0.800000011920929,
                    0.800000011920929,
                    1
                ],
                "metallicFactor" : 0,
                "roughnessFactor" : 0.5
            }
        }
    ],
    "meshes" : [
        {
            "name" : "Plane.003",
            "primitives" : [
                {
                    "attributes" : {
                        "POSITION" : 0,
                        "NORMAL" : 1,
                        "TEXCOORD_0" : 2
                    },
                    "indices" : 3,
                    "material" : 0
                }
            ]
        }
    ],
    "accessors" : [
        {
            "bufferView" : 0,
            "componentType" : 5126,
            "count" : 24441,
            "max" : [
                9.429875373840332,
                87.07242584228516,
                17.50177001953125
            ],
            "min" : [
                -19.69447898864746,
                -56.97669219970703,
                -27.297649383544922
            ],
            "type" : "VEC3"
        },
        {
            "bufferView" : 1,
            "componentType" : 5126,
            "count" : 24441,
            "type" : "VEC3"
        },
        {
            "bufferView" : 2,
            "componentType" : 5126,
            "count" : 24441,
            "type" : "VEC2"
        },
        {
            "bufferView" : 3,
            "componentType" : 5123,
            "count" : 39174,
            "type" : "SCALAR"
        }
    ],
    "bufferViews" : [
        {
            "buffer" : 0,
            "byteLength" : 293292,
            "byteOffset" : 0
        },
        {
            "buffer" : 0,
            "byteLength" : 293292,
            "byteOffset" : 293292
        },
        {
            "buffer" : 0,
            "byteLength" : 195528,
            "byteOffset" : 586584
        },
        {
            "buffer" : 0,
            "byteLength" : 78348,
            "byteOffset" : 782112
        }
    ],
    "buffers" : [
        {
            "byteLength" : 860460,
            "uri" : "data:application/octet-stream;base64,"
        }
    ]
}
