{
    "asset" : {
        "generator" : "Khronos glTF Blender I/O v1.1.46",
        "version" : "2.0"
    },
    "scene" : 0,
    "scenes" : [
        {
            "name" : "Scene",
            "nodes" : [
                0,
                1,
                2
            ]
        }
    ],
    "nodes" : [
        {
            "name" : "Light.001",
            "rotation" : [
                -0.2841666042804718,
                0.7269421815872192,
                0.3420339822769165,
                0.5232755541801453
            ],
            "translation" : [
                8.045884132385254,
                8.496869087219238,
                0.21501119434833527
            ]
        },
        {
            "name" : "Camera.001",
            "rotation" : [
                -0.20997296273708344,
                0.3857799470424652,
                0.09062869846820831,
                0.8937962055206299
            ],
            "translation" : [
                7.358891487121582,
                4.95830774307251,
                6.925795078277588
            ]
        },
        {
            "mesh" : 0,
            "name" : "Plane.015",
            "rotation" : [
                -0.7071065902709961,
                0,
                0,
                0.7071069478988647
            ],
            "scale" : [
                2.0023090839385986,
                0.5215750336647034,
                1.9121991395950317
            ],
            "translation" : [
                13.170000076293945,
                8.053899765014648,
                7.087331771850586
            ]
        }
    ],
    "materials" : [
        {
            "doubleSided" : true,
            "emissiveFactor" : [
                0,
                0,
                0
            ],
            "name" : "Material.007",
            "pbrMetallicRoughness" : {
                "baseColorFactor" : [
                    0.800000011920929,
                    0.800000011920929,
                    0.800000011920929,
                    1
                ],
                "metallicFactor" : 0,
                "roughnessFactor" : 0.5
            }
        }
    ],
    "meshes" : [
        {
            "name" : "Plane.004",
            "primitives" : [
                {
                    "attributes" : {
                        "POSITION" : 0,
                        "NORMAL" : 1,
                        "TEXCOORD_0" : 2
                    },
                    "indices" : 3,
                    "material" : 0
                }
            ]
        }
    ],
    "accessors" : [
        {
            "bufferView" : 0,
            "componentType" : 5126,
            "count" : 9380,
            "max" : [
                1.2698593139648438,
                30.022369384765625,
                5.300636291503906
            ],
            "min" : [
                -12.242632865905762,
                -6.002129554748535,
                -17.140676498413086
            ],
            "type" : "VEC3"
        },
        {
            "bufferView" : 1,
            "componentType" : 5126,
            "count" : 9380,
            "type" : "VEC3"
        },
        {
            "bufferView" : 2,
            "componentType" : 5126,
            "count" : 9380,
            "type" : "VEC2"
        },
        {
            "bufferView" : 3,
            "componentType" : 5123,
            "count" : 11520,
            "type" : "SCALAR"
        }
    ],
    "bufferViews" : [
        {
            "buffer" : 0,
            "byteLength" : 112560,
            "byteOffset" : 0
        },
        {
            "buffer" : 0,
            "byteLength" : 112560,
            "byteOffset" : 112560
        },
        {
            "buffer" : 0,
            "byteLength" : 75040,
            "byteOffset" : 225120
        },
        {
            "buffer" : 0,
            "byteLength" : 23040,
            "byteOffset" : 300160
        }
    ],
    "buffers" : [
        {
            "byteLength" : 323200,
            "uri" : "data:application/octet-stream;base64,"
        }
    ]
}
